<svg width="200" height="200" viewBox="0 0 200 200" fill="none" xmlns="http://www.w3.org/2000/svg">
  <defs>
    <linearGradient id="mainGradient" x1="0%" y1="0%" x2="100%" y2="100%">
      <stop offset="0%" style="stop-color:#667eea;stop-opacity:1" />
      <stop offset="100%" style="stop-color:#764ba2;stop-opacity:1" />
    </linearGradient>
    <linearGradient id="accentGradient" x1="0%" y1="0%" x2="100%" y2="100%">
      <stop offset="0%" style="stop-color:#4facfe;stop-opacity:1" />
      <stop offset="100%" style="stop-color:#00f2fe;stop-opacity:1" />
    </linearGradient>
    <filter id="glow">
      <feGaussianBlur stdDeviation="4" result="coloredBlur"/>
      <feMerge>
        <feMergeNode in="coloredBlur"/>
        <feMergeNode in="SourceGraphic"/>
      </feMerge>
    </filter>
  </defs>

  <!-- Background Circle -->
  <circle cx="100" cy="100" r="95" fill="url(#mainGradient)" opacity="0.1"/>

  <!-- Main Hexagon Structure -->
  <g filter="url(#glow)">
    <!-- Outer Hexagon -->
    <path d="M 100 20 L 165 55 L 165 125 L 100 160 L 35 125 L 35 55 Z"
          fill="none"
          stroke="url(#mainGradient)"
          stroke-width="6"
          stroke-linecap="round"
          stroke-linejoin="round"/>

    <!-- Inner Hexagon -->
    <path d="M 100 40 L 145 65 L 145 115 L 100 140 L 55 115 L 55 65 Z"
          fill="none"
          stroke="url(#accentGradient)"
          stroke-width="4"
          stroke-linecap="round"
          stroke-linejoin="round"/>
  </g>

  <!-- Central M Symbol -->
  <g transform="translate(100, 100)">
    <!-- M Letter composed of geometric shapes -->
    <path d="M -25 -15 L -25 25 M -25 -15 L 0 10 M 0 10 L 25 -15 M 25 -15 L 25 25"
          stroke="url(#mainGradient)"
          stroke-width="8"
          stroke-linecap="round"
          stroke-linejoin="round"
          fill="none"/>
  </g>

  <!-- Connecting Lines (Circuit Board Style) -->
  <g opacity="0.6">
    <line x1="100" y1="20" x2="100" y2="40" stroke="url(#accentGradient)" stroke-width="2"/>
    <line x1="165" y1="55" x2="145" y2="65" stroke="url(#accentGradient)" stroke-width="2"/>
    <line x1="165" y1="125" x2="145" y2="115" stroke="url(#accentGradient)" stroke-width="2"/>
    <line x1="100" y1="160" x2="100" y2="140" stroke="url(#accentGradient)" stroke-width="2"/>
    <line x1="35" y1="125" x2="55" y2="115" stroke="url(#accentGradient)" stroke-width="2"/>
    <line x1="35" y1="55" x2="55" y2="65" stroke="url(#accentGradient)" stroke-width="2"/>
  </g>

  <!-- Corner Dots -->
  <g fill="url(#accentGradient)">
    <circle cx="100" cy="20" r="4"/>
    <circle cx="165" cy="55" r="4"/>
    <circle cx="165" cy="125" r="4"/>
    <circle cx="100" cy="160" r="4"/>
    <circle cx="35" cy="125" r="4"/>
    <circle cx="35" cy="55" r="4"/>
  </g>

  <!-- Animated Pulse Circle -->
  <circle cx="100" cy="100" r="5" fill="url(#mainGradient)">
    <animate attributeName="r" values="5;8;5" dur="2s" repeatCount="indefinite"/>
    <animate attributeName="opacity" values="1;0.5;1" dur="2s" repeatCount="indefinite"/>
  </circle>
</svg>
