<svg width="400" height="100" viewBox="0 0 400 100" fill="none" xmlns="http://www.w3.org/2000/svg">
  <!-- Logo Icon -->
  <g transform="translate(0, 0)">
    <!-- Outer Hexagon -->
    <path d="M 50 10 L 82.5 27.5 L 82.5 62.5 L 50 80 L 17.5 62.5 L 17.5 27.5 Z"
          fill="none"
          stroke="white"
          stroke-width="3"
          stroke-linecap="round"
          stroke-linejoin="round"/>

    <!-- Inner Hexagon -->
    <path d="M 50 20 L 72.5 32.5 L 72.5 57.5 L 50 70 L 27.5 57.5 L 27.5 32.5 Z"
          fill="none"
          stroke="rgba(255,255,255,0.7)"
          stroke-width="2"
          stroke-linecap="round"
          stroke-linejoin="round"/>

    <!-- M Letter -->
    <path d="M 37.5 37.5 L 37.5 57.5 M 37.5 37.5 L 50 50 M 50 50 L 62.5 37.5 M 62.5 37.5 L 62.5 57.5"
          stroke="white"
          stroke-width="4"
          stroke-linecap="round"
          stroke-linejoin="round"
          fill="none"/>

    <!-- Corner Dots -->
    <circle cx="50" cy="10" r="2" fill="rgba(255,255,255,0.8)"/>
    <circle cx="82.5" cy="27.5" r="2" fill="rgba(255,255,255,0.8)"/>
    <circle cx="82.5" cy="62.5" r="2" fill="rgba(255,255,255,0.8)"/>
    <circle cx="50" cy="80" r="2" fill="rgba(255,255,255,0.8)"/>
    <circle cx="17.5" cy="62.5" r="2" fill="rgba(255,255,255,0.8)"/>
    <circle cx="17.5" cy="27.5" r="2" fill="rgba(255,255,255,0.8)"/>

    <!-- Center Pulse -->
    <circle cx="50" cy="50" r="2.5" fill="white"/>
  </g>

  <!-- Text: MoCell -->
  <g transform="translate(110, 30)">
    <text x="0" y="30" font-family="'Space Grotesk', 'Inter', sans-serif" font-size="36" font-weight="700" fill="white">
      MoCell
    </text>
    <text x="2" y="50" font-family="'Inter', sans-serif" font-size="10" font-weight="500" fill="rgba(255,255,255,0.7)" letter-spacing="2">
      IT SOLUTIONS & SECURITY
    </text>
  </g>
</svg>
