<svg width="200" height="200" viewBox="0 0 200 200" fill="none" xmlns="http://www.w3.org/2000/svg">
  <defs>
    <linearGradient id="mainGradient" x1="0%" y1="0%" x2="100%" y2="100%">
      <stop offset="0%" style="stop-color:#667eea;stop-opacity:1" />
      <stop offset="100%" style="stop-color:#764ba2;stop-opacity:1" />
    </linearGradient>
    <linearGradient id="accentGradient" x1="0%" y1="0%" x2="100%" y2="100%">
      <stop offset="0%" style="stop-color:#4facfe;stop-opacity:1" />
      <stop offset="100%" style="stop-color:#00f2fe;stop-opacity:1" />
    </linearGradient>
  </defs>

  <!-- Outer Hexagon -->
  <path d="M 100 20 L 165 55 L 165 125 L 100 160 L 35 125 L 35 55 Z"
        fill="none"
        stroke="url(#mainGradient)"
        stroke-width="6"
        stroke-linecap="round"
        stroke-linejoin="round"/>

  <!-- Inner Hexagon -->
  <path d="M 100 40 L 145 65 L 145 115 L 100 140 L 55 115 L 55 65 Z"
        fill="none"
        stroke="url(#accentGradient)"
        stroke-width="4"
        stroke-linecap="round"
        stroke-linejoin="round"/>

  <!-- M Letter -->
  <path d="M 75 75 L 75 115 M 75 75 L 100 95 M 100 95 L 125 75 M 125 75 L 125 115"
        stroke="url(#mainGradient)"
        stroke-width="8"
        stroke-linecap="round"
        stroke-linejoin="round"
        fill="none"/>

  <!-- Corner Dots -->
  <circle cx="100" cy="20" r="4" fill="url(#accentGradient)"/>
  <circle cx="165" cy="55" r="4" fill="url(#accentGradient)"/>
  <circle cx="165" cy="125" r="4" fill="url(#accentGradient)"/>
  <circle cx="100" cy="160" r="4" fill="url(#accentGradient)"/>
  <circle cx="35" cy="125" r="4" fill="url(#accentGradient)"/>
  <circle cx="35" cy="55" r="4" fill="url(#accentGradient)"/>

  <!-- Center Pulse -->
  <circle cx="100" cy="100" r="5" fill="url(#mainGradient)"/>
</svg>
